<?xml version="1.0" encoding="UTF-8"?><svg id="Camada_2" xmlns="http://www.w3.org/2000/svg" viewBox="0 0 721.38 138.23"><defs><style>.cls-1{fill:#ed1c24;stroke-width:0px;}</style></defs><g id="Layer_2"><path class="cls-1" d="m712.27,36.39c-9.78-18-30.52-28.7-43.83-32.22-13.3-3.52-44.74-4.17-63.78-4.17h-90.8c-2.3,0-4.16,1.86-4.16,4.16v17.12c0,2.3,1.86,4.16,4.16,4.16h80.62c30.13,0,53.22.78,64.27,3.42,11.05,2.64,19.73,8.32,26.9,17.97,7.17,9.65,6.36,22.29,6.36,22.29,0,0,.82,12.64-6.36,22.29-7.17,9.65-15.85,15.33-26.9,17.97-11.05,2.64-34.14,3.42-64.27,3.42h-80.62c-2.3,0-4.16,1.86-4.16,4.16v17.12c0,2.3,1.86,4.16,4.16,4.16h90.8c19.04,0,50.48-.65,63.78-4.17,13.3-3.52,34.04-14.22,43.83-32.22,9.78-18,9.1-32.72,9.1-32.72,0,0,.68-14.72-9.1-32.72Z"/><path class="cls-1" d="m331.61,60.46h-37.06c-8.41,0-20.15-.59-20.15-18.39V3.44c0-1.9-1.54-3.44-3.44-3.44h-23.18c-1.9,0-3.44,1.54-3.44,3.44v43.42c0,13.6,1.89,24.26,7.37,30.03s17.12,9,30.23,9h49.68c1.9,0,3.44-1.54,3.44-3.44v-18.55c0-1.9-1.54-3.44-3.44-3.44Z"/><path class="cls-1" d="m473.49,0h-23.18c-1.9,0-3.44,1.54-3.44,3.44v38.62c0,17.81-11.74,18.39-20.15,18.39h-73.55c-1.9,0-3.44,1.54-3.44,3.44v70.79c0,1.9,1.54,3.44,3.44,3.44h28.27c1.9,0,3.44-1.54,3.44-3.44v-26.8s0,0,0,0v-18.55c0-1.9,1.54-3.44,3.44-3.44h51.02c13.11,0,24.75-3.23,30.23-9s7.37-16.43,7.37-30.03V3.44c0-1.9-1.54-3.44-3.44-3.44Z"/><path class="cls-1" d="m199.5,69.07c0-.83.49-1.57.49-1.57,7.24-8.8,11.02-15.07,11.02-27.85s-8.71-25.27-19.08-31.63S171.88,0,136.27,0H4.16C1.86,0,0,1.86,0,4.16v17.12c0,2.3,1.86,4.16,4.16,4.16h155.79c10.27,0,22.43,4.01,22.43,15.85s-14.12,15.26-23.02,15.26H4.16c-2.3,0-4.16,1.86-4.16,4.16v16.73c0,2.3,1.86,4.16,4.16,4.16h155.2c8.9,0,23.02,3.42,23.02,15.26s-12.16,15.85-22.43,15.85H4.16c-2.3,0-4.16,1.86-4.16,4.16v17.12c0,2.3,1.86,4.16,4.16,4.16h132.11c35.61,0,45.29-1.66,55.66-8.02s19.08-18.85,19.08-31.63-3.78-19.04-11.02-27.85c0,0-.49-.73-.49-1.57Z"/></g></svg>