<?xml version="1.0" encoding="utf-8"?>
<!-- Generator: Adobe Illustrator 28.0.0, SVG Export Plug-In . SVG Version: 6.00 Build 0)  -->
<svg version="1.1" xmlns="http://www.w3.org/2000/svg" xmlns:xlink="http://www.w3.org/1999/xlink" x="0px" y="0px"
	 viewBox="0 0 687.8 211.6" style="enable-background:new 0 0 687.8 211.6;" xml:space="preserve">
<style type="text/css">
	.st0{fill:#FFFFFF;}
	.st1{fill:#223F93;}
	.st2{fill:#192642;}
	.st3{fill:#2561AB;}
</style>
<g id="Grid">
</g>
<g id="Camada_1">
	<g>
		<g>
			<g>
				<path d="M53.5,0h16.8l53.5,161.7h-17l-13.3-40.4H30.3L17,161.7H0L53.5,0z M88.2,105.1L61.8,25.6l-26.2,79.5H88.2z"/>
				<path d="M143.1,0h70.5c4.1,0,8.1,0.8,11.8,2.4c3.8,1.6,7,3.8,9.8,6.6c2.8,2.8,4.9,6,6.5,9.8c1.6,3.8,2.4,7.7,2.4,11.9v27.5
					c0,4.2-0.8,8.1-2.3,11.8c-1.5,3.7-3.6,6.9-6.3,9.7c-2.7,2.8-5.8,5-9.4,6.6c-3.6,1.6-7.5,2.5-11.6,2.7l35.1,72.8h-17.9
					l-35.1-72.8h-37.4v72.8h-16.1V0z M159.1,72.8h54.4c4,0,7.4-1.4,10.2-4.3c2.8-2.8,4.2-6.3,4.2-10.3V30.7c0-4-1.4-7.4-4.2-10.3
					c-2.8-2.8-6.2-4.3-10.2-4.3h-54.4V72.8z"/>
				<path d="M281.7,161.7L330,16.2h-71V0H347v16.2l-48.4,145.5H281.7z"/>
				<path d="M359.8,30.7c0-4.2,0.8-8.1,2.4-11.9c1.6-3.8,3.8-7,6.5-9.8c2.8-2.8,6-5,9.8-6.6c3.7-1.6,7.7-2.4,11.8-2.4H428
					c4.1,0,8.1,0.8,11.8,2.4c3.7,1.6,7,3.8,9.8,6.6s4.9,6,6.5,9.8c1.6,3.8,2.4,7.7,2.4,11.9V131c0,4.2-0.8,8.1-2.4,11.9
					c-1.6,3.8-3.8,7-6.5,9.8c-2.8,2.8-6,5-9.8,6.6c-3.8,1.6-7.7,2.4-11.8,2.4h-37.7c-4.1,0-8.1-0.8-11.8-2.4c-3.8-1.6-7-3.8-9.8-6.6
					c-2.8-2.8-4.9-6-6.5-9.8c-1.6-3.8-2.4-7.7-2.4-11.9V30.7z M375.9,30.7V131c0,4,1.4,7.4,4.2,10.3c2.8,2.9,6.2,4.3,10.2,4.3H428
					c4,0,7.4-1.4,10.2-4.3c2.8-2.8,4.2-6.3,4.2-10.3V30.7c0-4-1.4-7.4-4.2-10.3c-2.8-2.8-6.2-4.3-10.2-4.3h-37.7
					c-4,0-7.4,1.4-10.2,4.3C377.3,23.3,375.9,26.7,375.9,30.7z"/>
			</g>
			<g>
				<path d="M26.5,173.5v6H16.2v32.1h-5.9v-32.1H0v-6H26.5z"/>
				<path d="M28.3,173.5h6.2l7.5,28.1l8.3-28.1h5.6l8.3,28.1l7.5-28.1h6.2l-10.2,38.1h-6.3l-8.3-28.5l-8.3,28.5h-6.2L28.3,173.5z"/>
				<path d="M82.1,181.3c0-1.1,0.2-2.1,0.6-3.1c0.4-1,1-1.8,1.7-2.5s1.5-1.3,2.5-1.7c0.9-0.4,1.9-0.6,3-0.6h10.4
					c1.1,0,2.1,0.2,3.1,0.6s1.8,1,2.5,1.7c0.7,0.7,1.3,1.5,1.6,2.5c0.4,1,0.6,2,0.6,3.1v22.4c0,1.1-0.2,2.1-0.6,3
					c-0.4,0.9-0.9,1.8-1.6,2.5c-0.7,0.7-1.5,1.3-2.5,1.7c-1,0.4-2,0.6-3.1,0.6H89.9c-1.1,0-2.1-0.2-3-0.6c-0.9-0.4-1.8-1-2.5-1.7
					s-1.3-1.5-1.7-2.5c-0.4-0.9-0.6-2-0.6-3V181.3z M90.8,205.6h8.6c0.8,0,1.4-0.3,1.9-0.8c0.5-0.5,0.8-1.2,0.8-1.9v-20.7
					c0-0.8-0.3-1.4-0.8-1.9c-0.5-0.5-1.2-0.8-1.9-0.8h-8.6c-0.8,0-1.4,0.3-1.9,0.8c-0.5,0.5-0.8,1.2-0.8,1.9v20.7
					c0,0.8,0.3,1.4,0.8,1.9C89.4,205.3,90,205.6,90.8,205.6z"/>
				<path d="M128.2,186.6v-5.2c0-1.1,0.2-2.1,0.6-3.1s1-1.8,1.7-2.5s1.5-1.3,2.5-1.7c0.9-0.4,1.9-0.6,3-0.6h11.5
					c1.1,0,2.1,0.2,3.1,0.6s1.8,1,2.5,1.7c0.7,0.7,1.3,1.5,1.6,2.5s0.6,2,0.6,3.1v5.2h-5.9v-4.4c0-0.8-0.3-1.4-0.8-1.9
					c-0.5-0.5-1.2-0.8-1.9-0.8h-9.7c-0.8,0-1.4,0.3-1.9,0.8c-0.5,0.5-0.8,1.2-0.8,1.9v4c0,0.8,0.4,1.3,1.2,1.6l15,4.2
					c1.4,0.4,2.6,1.2,3.5,2.4c0.9,1.2,1.3,2.6,1.3,4.1v5.2c0,1.1-0.2,2.1-0.6,3c-0.4,0.9-0.9,1.8-1.6,2.5c-0.7,0.7-1.5,1.3-2.5,1.7
					c-1,0.4-2,0.6-3.1,0.6H136c-1.1,0-2.1-0.2-3-0.6c-0.9-0.4-1.8-1-2.5-1.7s-1.3-1.5-1.7-2.5c-0.4-0.9-0.6-2-0.6-3v-5.2h5.9v4.4
					c0,0.8,0.3,1.4,0.8,1.9c0.5,0.5,1.2,0.8,1.9,0.8h9.7c0.8,0,1.4-0.3,1.9-0.8c0.5-0.5,0.8-1.2,0.8-1.9v-4c0-0.8-0.4-1.3-1.2-1.6
					l-15-4.2c-1.4-0.4-2.6-1.3-3.5-2.5C128.6,189.4,128.2,188.1,128.2,186.6z"/>
				<path d="M185.8,173.5v6h-10.3v32.1h-5.9v-32.1h-10.3v-6H185.8z"/>
				<path d="M212.6,173.5v6h-16.2v10.1H211v6h-14.6v10.1h16.2v6h-22.1v-38.1H212.6z"/>
				<path d="M220.5,173.5h18.2c1.1,0,2.1,0.2,3.1,0.6s1.8,1,2.5,1.7s1.3,1.5,1.6,2.5c0.4,1,0.6,2,0.6,3.1v8.5c0,1.1-0.2,2.1-0.6,3
					c-0.4,0.9-0.9,1.8-1.6,2.5c-0.7,0.7-1.5,1.3-2.5,1.7s-2,0.6-3.1,0.6h-12.2v13.9h-5.9V173.5z M226.5,179.5v12.2h11.3
					c0.8,0,1.4-0.3,1.9-0.8c0.5-0.5,0.8-1.2,0.8-1.9v-6.8c0-0.8-0.3-1.4-0.8-1.9c-0.5-0.5-1.2-0.8-1.9-0.8H226.5z"/>
				<path d="M252.2,186.6v-5.2c0-1.1,0.2-2.1,0.6-3.1s1-1.8,1.7-2.5c0.7-0.7,1.5-1.3,2.5-1.7c0.9-0.4,1.9-0.6,3-0.6h11.5
					c1.1,0,2.1,0.2,3.1,0.6s1.8,1,2.5,1.7s1.3,1.5,1.6,2.5c0.4,1,0.6,2,0.6,3.1v5.2h-5.9v-4.4c0-0.8-0.3-1.4-0.8-1.9
					c-0.5-0.5-1.2-0.8-1.9-0.8h-9.7c-0.8,0-1.4,0.3-1.9,0.8c-0.5,0.5-0.8,1.2-0.8,1.9v4c0,0.8,0.4,1.3,1.2,1.6l15,4.2
					c1.4,0.4,2.6,1.2,3.5,2.4s1.4,2.6,1.4,4.1v5.2c0,1.1-0.2,2.1-0.6,3c-0.4,0.9-0.9,1.8-1.6,2.5s-1.5,1.3-2.5,1.7
					c-1,0.4-2,0.6-3.1,0.6H260c-1.1,0-2.1-0.2-3-0.6c-0.9-0.4-1.8-1-2.5-1.7c-0.7-0.7-1.3-1.5-1.7-2.5c-0.4-0.9-0.6-2-0.6-3v-5.2
					h5.9v4.4c0,0.8,0.3,1.4,0.8,1.9c0.5,0.5,1.2,0.8,1.9,0.8h9.7c0.8,0,1.4-0.3,1.9-0.8c0.5-0.5,0.8-1.2,0.8-1.9v-4
					c0-0.8-0.4-1.3-1.2-1.6l-15-4.2c-1.4-0.4-2.6-1.3-3.5-2.5C252.6,189.4,252.2,188.1,252.2,186.6z"/>
				<path d="M310,173.5h6.2l12.6,38.1h-6.3l-2.6-7.9h-13.7l-2.6,7.9h-6.3L310,173.5z M308.3,197.7h9.7l-4.8-15L308.3,197.7z"/>
				<path d="M334.1,173.5h5.9v16.1h14.6v-16.1h5.9v38.1h-5.9v-16.1H340v16.1h-5.9V173.5z"/>
				<path d="M390.6,173.5v6h-16.2v10.1H389v6h-14.6v10.1h16.2v6h-22.1v-38.1H390.6z"/>
				<path d="M408.5,173.5h6.2l12.6,38.1h-6.3l-2.6-7.9h-13.7l-2.6,7.9h-6.3L408.5,173.5z M406.8,197.7h9.7l-4.8-15L406.8,197.7z"/>
				<path d="M450.8,173.5c1.1,0,2.1,0.2,3,0.6c0.9,0.4,1.8,1,2.5,1.7c0.7,0.7,1.3,1.5,1.7,2.5c0.4,0.9,0.6,2,0.6,3v22.4
					c0,1.1-0.2,2.1-0.6,3c-0.4,0.9-1,1.8-1.7,2.5s-1.5,1.3-2.5,1.7c-0.9,0.4-1.9,0.6-3,0.6h-18.2v-38.1H450.8z M438.6,205.6h11.3
					c0.8,0,1.4-0.3,1.9-0.8c0.5-0.5,0.8-1.2,0.8-1.9v-20.7c0-0.8-0.3-1.4-0.8-1.9c-0.5-0.5-1.2-0.8-1.9-0.8h-11.3V205.6z"/>
			</g>
			<g>
				<g>
					<g>
						<polygon class="st1" points="659.9,151.2 631.9,105.8 566.8,211.6 622.7,211.6 						"/>
					</g>
				</g>
				<polygon class="st2" points="625.7,116 659.9,151.2 664.5,143.7 631.9,105.8 				"/>
				<polygon class="st3" points="687.8,105.8 659.9,151.2 566.8,0 622.7,0 				"/>
			</g>
			<g>
				<g>
					<polygon class="st1" points="583.3,151.2 555.4,105.8 490.3,211.6 546.2,211.6 					"/>
				</g>
				<polygon class="st2" points="549.1,116 583.3,151.2 587.9,143.7 555.4,105.8 				"/>
				<polygon class="st3" points="611.3,105.8 583.3,151.2 490.3,0 546.2,0 				"/>
			</g>
		</g>
	</g>
</g>
</svg>
